<svg width="250" height="245" viewBox="0 0 250 245" fill="none" xmlns="http://www.w3.org/2000/svg">
<g clip-path="url(#clip0_1496_728)">
<path d="M158.71 55.0997H91.3462C89.8111 55.1016 88.3394 55.7146 87.2539 56.8044C86.1684 57.8942 85.5578 59.3718 85.5559 60.913V211.225L84.7839 211.461L68.2584 216.542C67.4752 216.782 66.6292 216.7 65.9063 216.314C65.1833 215.928 64.6423 215.27 64.4021 214.484L15.2463 53.2821C15.0071 52.4958 15.0886 51.6463 15.473 50.9203C15.8574 50.1943 16.5131 49.6512 17.2961 49.4104L42.7619 41.5819L116.588 18.8946L142.054 11.0661C142.441 10.9463 142.848 10.9045 143.252 10.9429C143.656 10.9814 144.048 11.0994 144.406 11.2902C144.764 11.4809 145.082 11.7408 145.34 12.0548C145.598 12.3688 145.791 12.7308 145.91 13.1201L158.475 54.3246L158.71 55.0997Z" fill="#F2F2F2"/>
<path d="M173.41 54.3246L158.266 4.66375C158.014 3.83631 157.602 3.06682 157.054 2.39925C156.506 1.73168 155.832 1.17912 155.071 0.773148C154.31 0.367171 153.477 0.115729 152.619 0.0332006C151.761 -0.049328 150.895 0.0386735 150.071 0.292168L114.268 11.2948L40.4457 33.9859L4.64239 44.9924C2.97916 45.5051 1.58651 46.6595 0.770138 48.202C-0.0462391 49.7446 -0.219649 51.5493 0.287979 53.2201L52.0455 222.941C52.4578 224.289 53.2899 225.47 54.4196 226.309C55.5492 227.148 56.917 227.601 58.3222 227.603C58.9726 227.603 59.6193 227.505 60.2406 227.312L84.7838 219.77L85.5558 219.53V218.72L84.7838 218.957L60.013 226.572C58.5448 227.021 56.9592 226.868 55.6037 226.145C54.2483 225.422 53.2338 224.189 52.7828 222.716L1.02929 52.9915C0.805823 52.2617 0.727938 51.4948 0.800095 50.7347C0.872252 49.9747 1.09303 49.2364 1.44979 48.5621C1.80656 47.8878 2.29231 47.2908 2.87921 46.8053C3.46611 46.3198 4.14265 45.9553 4.87007 45.7326L40.6733 34.7261L114.496 12.0389L150.299 1.0324C150.851 0.863348 151.424 0.777153 152.001 0.776613C153.239 0.779404 154.444 1.18012 155.439 1.92005C156.433 2.65999 157.166 3.70028 157.529 4.88854L172.603 54.3246L172.842 55.0997H173.645L173.41 54.3246Z" fill="#3F3D56"/>
<path d="M47.3572 49.5372C46.6132 49.5367 45.8889 49.2968 45.2907 48.8527C44.6924 48.4086 44.2517 47.7838 44.0331 47.0698L39.061 30.7648C38.9274 30.3268 38.881 29.8667 38.9245 29.4107C38.9681 28.9547 39.1006 28.5119 39.3147 28.1073C39.5287 27.7028 39.8201 27.3446 40.172 27.0531C40.524 26.7616 40.9297 26.5426 41.366 26.4086L109.282 5.53361C110.163 5.26369 111.115 5.35575 111.928 5.78957C112.742 6.2234 113.35 6.96354 113.621 7.84757L118.593 24.1527C118.862 25.0373 118.77 25.9927 118.338 26.8094C117.906 27.6261 117.169 28.2374 116.288 28.5091L48.3722 49.3841C48.0433 49.4854 47.7012 49.537 47.3572 49.5372Z" fill="#F64E60"/>
<path d="M73.403 17.4222C77.6669 17.4222 81.1234 13.952 81.1234 9.6712C81.1234 5.39042 77.6669 1.92017 73.403 1.92017C69.1392 1.92017 65.6826 5.39042 65.6826 9.6712C65.6826 13.952 69.1392 17.4222 73.403 17.4222Z" fill="#F64E60"/>
<path d="M73.4029 14.5795C76.1029 14.5795 78.2917 12.382 78.2917 9.67126C78.2917 6.96054 76.1029 4.76306 73.4029 4.76306C70.7029 4.76306 68.5142 6.96054 68.5142 9.67126C68.5142 12.382 70.7029 14.5795 73.4029 14.5795Z" fill="white"/>
<path d="M232.629 225.622H102.155C101.285 225.621 100.451 225.274 99.8357 224.656C99.2205 224.039 98.8745 223.202 98.8735 222.328V65.3699C98.8745 64.4965 99.2205 63.6592 99.8356 63.0416C100.451 62.424 101.285 62.0767 102.155 62.0757H232.629C233.499 62.0767 234.333 62.4241 234.948 63.0416C235.563 63.6592 235.909 64.4965 235.91 65.3699V222.328C235.909 223.202 235.563 224.039 234.948 224.656C234.333 225.274 233.499 225.621 232.629 225.622Z" fill="#E6E6E6"/>
<path d="M172.603 54.3246H91.346C89.6063 54.3271 87.9386 55.022 86.7085 56.257C85.4783 57.492 84.7862 59.1664 84.7837 60.913V218.957L85.5557 218.72V60.913C85.5576 59.3718 86.1682 57.8942 87.2537 56.8044C88.3392 55.7146 89.8109 55.1016 91.346 55.0997H172.842L172.603 54.3246ZM243.438 54.3246H91.346C89.6063 54.3271 87.9386 55.022 86.7085 56.257C85.4783 57.492 84.7862 59.1664 84.7837 60.913V238.412C84.7862 240.158 85.4783 241.833 86.7085 243.068C87.9386 244.303 89.6063 244.998 91.346 245H243.438C245.177 244.998 246.845 244.303 248.075 243.068C249.305 241.833 249.997 240.158 250 238.412V60.913C249.997 59.1664 249.305 57.492 248.075 56.257C246.845 55.022 245.177 54.3271 243.438 54.3246ZM249.228 238.412C249.226 239.953 248.615 241.43 247.53 242.52C246.444 243.61 244.973 244.223 243.438 244.225H91.346C89.8109 244.223 88.3392 243.61 87.2537 242.52C86.1682 241.43 85.5576 239.953 85.5557 238.412V60.913C85.5576 59.3718 86.1682 57.8942 87.2537 56.8044C88.3392 55.7146 89.8109 55.1016 91.346 55.0997H243.438C244.973 55.1016 246.444 55.7146 247.53 56.8044C248.615 57.8942 249.226 59.3718 249.228 60.913V238.412Z" fill="#3F3D56"/>
<path d="M202.906 71.3768H131.878C130.957 71.3758 130.074 71.008 129.423 70.3541C128.771 69.7002 128.405 68.8136 128.404 67.8889V50.8366C128.405 49.9119 128.771 49.0253 129.423 48.3714C130.074 47.7175 130.957 47.3497 131.878 47.3486H202.906C203.827 47.3497 204.71 47.7175 205.361 48.3714C206.013 49.0253 206.379 49.9119 206.38 50.8366V67.8889C206.379 68.8136 206.013 69.7002 205.361 70.3541C204.71 71.008 203.827 71.3758 202.906 71.3768Z" fill="#F64E60"/>
<path d="M167.392 48.5113C171.656 48.5113 175.112 45.0411 175.112 40.7603C175.112 36.4795 171.656 33.0093 167.392 33.0093C163.128 33.0093 159.672 36.4795 159.672 40.7603C159.672 45.0411 163.128 48.5113 167.392 48.5113Z" fill="#F64E60"/>
<path d="M167.392 45.4814C169.989 45.4814 172.094 43.3677 172.094 40.7603C172.094 38.1529 169.989 36.0392 167.392 36.0392C164.795 36.0392 162.689 38.1529 162.689 40.7603C162.689 43.3677 164.795 45.4814 167.392 45.4814Z" fill="white"/>
</g>
<defs>
<clipPath id="clip0_1496_728">
<rect width="250" height="245" fill="white"/>
</clipPath>
</defs>
</svg>
